<svg width="1600" height="900" viewBox="0 0 1600 900" fill="none" xmlns="http://www.w3.org/2000/svg" role="img" aria-labelledby="title desc">
  <title>根据 IQueryable 得到 SQL 语句和参数 调试查询时，把最终 SQL 与参数还原出来会省下很多排查时间</title>
  <desc>技术 / Entity Framework</desc>
  <defs>
    <linearGradient id="bg" x1="0" y1="0" x2="1600" y2="900" gradientUnits="userSpaceOnUse">
      <stop stop-color="#08150D"/>
      <stop offset="0.42" stop-color="#13542B"/>
      <stop offset="1" stop-color="#27A454"/>
    </linearGradient>
    <radialGradient id="glowTop" cx="0" cy="0" r="1" gradientUnits="userSpaceOnUse" gradientTransform="translate(1260 180) rotate(90) scale(280 340)">
      <stop stop-color="#D7F8DD" stop-opacity="0.55"/>
      <stop offset="1" stop-color="#D7F8DD" stop-opacity="0"/>
    </radialGradient>
    <radialGradient id="glowSide" cx="0" cy="0" r="1" gradientUnits="userSpaceOnUse" gradientTransform="translate(240 220) rotate(90) scale(240 300)">
      <stop stop-color="#ffffff" stop-opacity="0.14"/>
      <stop offset="1" stop-color="#ffffff" stop-opacity="0"/>
    </radialGradient>
    <linearGradient id="shadeBottom" x1="0" y1="520" x2="0" y2="900" gradientUnits="userSpaceOnUse">
      <stop stop-color="#061018" stop-opacity="0"/>
      <stop offset="1" stop-color="#061018" stop-opacity="0.72"/>
    </linearGradient>
    <filter id="noise" x="-20%" y="-20%" width="140%" height="140%">
      <feTurbulence type="fractalNoise" baseFrequency="0.85" numOctaves="2" stitchTiles="stitch"/>
      <feColorMatrix type="saturate" values="0"/>
      <feComponentTransfer>
        <feFuncA type="table" tableValues="0 0.06"/>
      </feComponentTransfer>
    </filter>
    <filter id="blur" x="-20%" y="-20%" width="140%" height="140%">
      <feGaussianBlur stdDeviation="52"/>
    </filter>
  </defs>

  <rect width="1600" height="900" fill="url(#bg)"/>
  <circle cx="1260" cy="180" r="320" fill="url(#glowTop)"/>
  <circle cx="240" cy="220" r="250" fill="url(#glowSide)"/>
  <g opacity="0.22" filter="url(#blur)">
    <ellipse cx="1260" cy="662" rx="320" ry="110" fill="#FFFFFF"/>
    <ellipse cx="460" cy="760" rx="260" ry="84" fill="#D7F8DD"/>
  </g>
  <rect width="1600" height="900" filter="url(#noise)" opacity="0.16"/>
  <path d="M0 600C126 560 242 550 348 572C454 594 556 650 654 740C724 804 806 846 900 866C1010 888 1120 888 1230 866C1340 844 1463 786 1600 692V900H0V600Z" fill="#FFFFFF" fill-opacity="0.085"/>
  <path d="M0 674C160 624 290 620 390 662C490 704 582 774 668 872H0V674Z" fill="#FFFFFF" fill-opacity="0.055"/>
  <rect x="0" y="458" width="1600" height="442" fill="url(#shadeBottom)"/>

  <g><rect x="1020" y="246" width="44" height="44" rx="12" fill="#D7F8DD" fill-opacity="0.26"/><rect x="1092" y="246" width="44" height="44" rx="12" fill="#D7F8DD" fill-opacity="0.14"/><rect x="1164" y="246" width="44" height="44" rx="12" fill="#27A454" fill-opacity="0.14"/><rect x="1236" y="246" width="44" height="44" rx="12" fill="#D7F8DD" fill-opacity="0.14"/><rect x="1308" y="246" width="44" height="44" rx="12" fill="#27A454" fill-opacity="0.14"/><rect x="1380" y="246" width="44" height="44" rx="12" fill="#D7F8DD" fill-opacity="0.14"/><rect x="1020" y="318" width="44" height="44" rx="12" fill="#D7F8DD" fill-opacity="0.14"/><rect x="1092" y="318" width="44" height="44" rx="12" fill="#D7F8DD" fill-opacity="0.26"/><rect x="1164" y="318" width="44" height="44" rx="12" fill="#D7F8DD" fill-opacity="0.14"/><rect x="1236" y="318" width="44" height="44" rx="12" fill="#27A454" fill-opacity="0.14"/><rect x="1308" y="318" width="44" height="44" rx="12" fill="#D7F8DD" fill-opacity="0.14"/><rect x="1380" y="318" width="44" height="44" rx="12" fill="#27A454" fill-opacity="0.14"/><rect x="1020" y="390" width="44" height="44" rx="12" fill="#27A454" fill-opacity="0.14"/><rect x="1092" y="390" width="44" height="44" rx="12" fill="#D7F8DD" fill-opacity="0.14"/><rect x="1164" y="390" width="44" height="44" rx="12" fill="#D7F8DD" fill-opacity="0.26"/><rect x="1236" y="390" width="44" height="44" rx="12" fill="#D7F8DD" fill-opacity="0.14"/><rect x="1308" y="390" width="44" height="44" rx="12" fill="#27A454" fill-opacity="0.14"/><rect x="1380" y="390" width="44" height="44" rx="12" fill="#D7F8DD" fill-opacity="0.14"/><rect x="1020" y="462" width="44" height="44" rx="12" fill="#D7F8DD" fill-opacity="0.14"/><rect x="1092" y="462" width="44" height="44" rx="12" fill="#27A454" fill-opacity="0.14"/><rect x="1164" y="462" width="44" height="44" rx="12" fill="#D7F8DD" fill-opacity="0.14"/><rect x="1236" y="462" width="44" height="44" rx="12" fill="#D7F8DD" fill-opacity="0.26"/><rect x="1308" y="462" width="44" height="44" rx="12" fill="#D7F8DD" fill-opacity="0.14"/><rect x="1380" y="462" width="44" height="44" rx="12" fill="#27A454" fill-opacity="0.14"/><rect x="1020" y="534" width="44" height="44" rx="12" fill="#27A454" fill-opacity="0.14"/><rect x="1092" y="534" width="44" height="44" rx="12" fill="#D7F8DD" fill-opacity="0.14"/><rect x="1164" y="534" width="44" height="44" rx="12" fill="#27A454" fill-opacity="0.14"/><rect x="1236" y="534" width="44" height="44" rx="12" fill="#D7F8DD" fill-opacity="0.14"/><rect x="1308" y="534" width="44" height="44" rx="12" fill="#D7F8DD" fill-opacity="0.26"/><rect x="1380" y="534" width="44" height="44" rx="12" fill="#D7F8DD" fill-opacity="0.14"/></g>

  <rect x="104" y="150" width="248" height="40" rx="20" fill="#FFFFFF" fill-opacity="0.12"/>
  <text x="128" y="176" fill="#F8FAFC" font-size="21" font-family="PingFang SC, Hiragino Sans GB, Microsoft YaHei, sans-serif" letter-spacing="0.8">技术 / Entity Framework</text>

  <text x="104" y="500" fill="#FFFFFF" font-size="98" font-weight="700" font-family="PingFang SC, Hiragino Sans GB, Microsoft YaHei, sans-serif">根据 IQueryable 得到</text>
  <text x="104" y="606" fill="#FFFFFF" font-size="98" font-weight="700" font-family="PingFang SC, Hiragino Sans GB, Microsoft YaHei, sans-serif">SQL 语句和参数</text>
  <line x1="110" y1="646" x2="248" y2="646" stroke="#FFFFFF" stroke-opacity="0.5" stroke-width="3" stroke-linecap="round"/>
  <text x="104" y="698" fill="#E9F1F7" fill-opacity="0.92" font-size="29" font-family="PingFang SC, Hiragino Sans GB, Microsoft YaHei, sans-serif">调试查询时，把最终 SQL 与参数还原出来会省下很多排查时间</text>
</svg>
